<svg width="20" height="20" viewBox="0 0 20 20" fill="none" xmlns="http://www.w3.org/2000/svg">
<g clip-path="url(#clip0_209_1463)">
<path fill-rule="evenodd" clip-rule="evenodd" d="M17.0713 3.63602C17.2666 3.44076 17.2666 3.12418 17.0713 2.92892C16.876 2.73366 16.5595 2.73365 16.3642 2.92892L10.0002 9.29286L3.63631 2.92893C3.44105 2.73367 3.12447 2.73367 2.92921 2.92893C2.73395 3.12419 2.73395 3.44078 2.92921 3.63604L9.29314 9.99997L2.92916 16.3639C2.7339 16.5592 2.7339 16.8758 2.92916 17.0711C3.12442 17.2663 3.44101 17.2663 3.63627 17.0711L10.0002 10.7071L16.3642 17.0711C16.5595 17.2663 16.8761 17.2663 17.0713 17.0711C17.2666 16.8758 17.2666 16.5592 17.0713 16.364L10.7074 9.99997L17.0713 3.63602Z" fill="white"/>
</g>
<defs>
<clipPath id="clip0_209_1463">
<rect width="20" height="20" fill="white"/>
</clipPath>
</defs>
</svg>
