<?xml version="1.0" standalone="no"?>
<!DOCTYPE svg PUBLIC "-//W3C//DTD SVG 20010904//EN"
 "http://www.w3.org/TR/2001/REC-SVG-20010904/DTD/svg10.dtd">
<svg version="1.0" xmlns="http://www.w3.org/2000/svg"
 width="2000.000000pt" height="2000.000000pt" viewBox="0 0 2000.000000 2000.000000"
 preserveAspectRatio="xMidYMid meet">
<metadata>
Created by potrace 1.14, written by Peter Selinger 2001-2017
</metadata>
<g transform="translate(0.000000,2000.000000) scale(0.100000,-0.100000)"
fill="#000000" stroke="none">
<path d="M9930 15498 c-41 -45 -105 -113 -141 -152 -37 -39 -82 -87 -100 -107
-48 -52 -259 -277 -289 -309 -14 -14 -72 -77 -130 -139 -58 -63 -123 -132
-145 -156 -22 -23 -89 -95 -150 -160 -60 -65 -142 -152 -181 -194 -82 -87
-106 -113 -247 -264 -56 -61 -115 -124 -132 -142 -16 -17 -86 -91 -155 -165
-69 -73 -140 -149 -159 -169 -18 -20 -79 -85 -135 -145 -55 -60 -117 -125
-136 -146 -19 -20 -84 -90 -145 -155 -60 -65 -123 -133 -140 -150 -16 -18 -82
-88 -145 -156 -63 -68 -131 -140 -150 -160 -19 -20 -84 -90 -145 -154 -60 -65
-123 -133 -140 -151 -16 -17 -79 -85 -140 -150 -60 -65 -146 -156 -190 -203
-105 -110 -111 -117 -240 -256 -60 -65 -142 -153 -181 -194 -39 -42 -82 -88
-95 -102 -22 -24 -189 -203 -284 -304 -34 -35 -118 -126 -286 -306 -19 -20
-79 -84 -134 -143 -55 -59 -118 -127 -140 -150 -22 -24 -94 -101 -160 -171
-66 -71 -131 -141 -145 -155 -26 -28 -223 -239 -280 -300 -104 -112 -250 -268
-285 -305 -47 -49 -259 -276 -294 -314 -13 -14 -76 -82 -140 -150 -64 -68
-129 -139 -146 -156 -59 -63 -251 -268 -285 -305 -19 -20 -87 -93 -150 -160
-63 -68 -126 -136 -140 -150 -22 -23 -202 -216 -285 -305 -72 -78 -253 -271
-280 -300 -16 -18 -84 -90 -150 -161 -66 -70 -151 -162 -190 -203 -94 -100
-103 -109 -235 -251 -63 -68 -126 -136 -140 -150 -25 -27 -58 -62 -285 -305
-66 -70 -133 -142 -150 -160 -33 -34 -233 -249 -285 -305 -43 -47 -247 -266
-285 -305 -38 -41 -242 -258 -285 -305 -18 -19 -85 -91 -149 -159 -170 -182
-178 -191 -238 -256 -31 -33 -85 -90 -120 -128 l-65 -67 1430 0 c1214 0 1432
2 1439 14 4 8 37 45 73 83 36 38 117 125 180 193 63 68 126 135 140 150 14 15
79 84 145 155 66 70 134 142 150 160 17 17 80 85 140 150 61 65 124 132 140
150 28 30 215 229 285 305 18 19 85 91 149 159 64 68 127 135 140 150 22 23
212 227 286 305 41 44 245 263 285 306 18 19 85 91 150 160 65 69 132 141 150
160 40 44 235 252 275 295 92 97 182 194 280 299 163 175 167 180 304 325 69
74 133 142 142 152 8 10 67 73 131 141 64 68 130 139 148 158 18 19 80 86 139
149 58 62 120 128 136 146 42 44 264 283 295 315 14 15 77 82 140 150 63 67
129 137 145 154 17 18 80 85 140 151 61 65 124 133 140 150 17 17 80 85 140
149 61 65 130 140 155 166 25 26 88 94 140 150 52 56 115 123 140 149 25 26
92 98 150 161 58 62 119 127 135 145 58 61 171 182 280 299 61 65 128 138 150
161 22 23 90 95 150 160 61 65 126 135 145 155 19 20 82 87 140 149 147 158
151 163 285 305 66 71 136 146 155 168 l36 39 74 -78 c41 -44 134 -142 205
-218 72 -77 158 -169 191 -205 34 -36 76 -81 94 -100 18 -19 83 -89 145 -155
62 -66 125 -133 140 -150 34 -37 236 -254 290 -310 33 -35 155 -166 289 -309
118 -127 246 -264 271 -291 17 -17 80 -84 140 -150 61 -65 130 -139 155 -165
25 -26 92 -98 150 -160 58 -62 123 -132 145 -155 22 -24 83 -89 136 -146 53
-57 112 -120 130 -140 19 -20 86 -91 149 -159 63 -68 149 -160 191 -204 42
-45 88 -94 103 -111 15 -16 78 -84 139 -149 142 -151 138 -147 287 -307 69
-73 154 -165 190 -203 36 -38 76 -81 90 -96 14 -15 81 -87 150 -160 172 -184
162 -173 285 -305 61 -65 126 -135 145 -155 41 -43 244 -261 279 -299 13 -14
60 -65 105 -112 45 -47 128 -137 186 -199 58 -62 121 -130 140 -150 19 -20 82
-88 140 -150 58 -62 122 -131 143 -154 22 -22 90 -95 152 -161 62 -66 123
-132 136 -146 13 -15 80 -86 148 -158 69 -73 132 -141 141 -151 9 -10 72 -78
141 -151 68 -73 138 -147 154 -164 17 -18 82 -88 145 -156 63 -67 129 -137
145 -155 17 -18 78 -83 136 -146 58 -62 118 -126 133 -143 16 -16 81 -86 146
-155 65 -69 135 -144 157 -168 l39 -42 1422 2 1423 3 -42 45 c-23 25 -94 101
-158 169 -64 68 -129 137 -145 155 -16 17 -59 63 -95 101 -36 39 -120 129
-186 199 -66 71 -133 143 -150 161 -126 134 -194 207 -285 305 -58 63 -116
125 -130 140 -23 24 -228 243 -309 329 -18 20 -77 83 -130 140 -53 57 -112
120 -131 140 -19 20 -84 90 -145 155 -60 65 -123 133 -140 150 -16 18 -84 90
-150 160 -66 71 -136 145 -155 166 -30 31 -181 193 -284 304 -73 78 -244 262
-271 291 -16 17 -84 89 -150 160 -66 70 -136 145 -155 165 -19 21 -84 91 -145
156 -60 65 -140 150 -177 189 -36 38 -81 86 -98 105 -18 19 -62 67 -99 105
-36 39 -118 127 -181 195 -63 68 -131 140 -150 160 -19 20 -87 92 -150 160
-63 68 -126 136 -140 150 -81 85 -274 292 -288 308 -19 22 -223 240 -324 347
-36 38 -81 86 -100 106 -18 20 -83 89 -144 155 -62 65 -126 135 -144 154 -18
19 -87 93 -153 164 -67 70 -129 136 -137 146 -8 9 -64 70 -125 135 -60 64
-123 132 -140 149 -67 73 -262 281 -295 315 -19 20 -87 93 -150 161 -63 68
-126 136 -140 150 -14 15 -77 82 -140 150 -63 67 -128 137 -145 154 -16 18
-84 90 -150 161 -66 71 -150 161 -186 200 -37 38 -83 88 -104 110 -70 76 -140
151 -261 280 -141 150 -162 173 -304 325 -58 63 -123 132 -145 155 -22 23 -85
91 -140 150 -55 59 -116 124 -135 145 -19 20 -87 92 -150 160 -63 68 -131 140
-150 160 -19 21 -82 88 -140 150 -58 62 -121 130 -140 150 -19 21 -64 69 -100
107 -239 256 -308 330 -335 358 -36 38 -229 245 -275 295 -75 81 -270 289
-335 356 l-70 74 -75 -82z"/>
</g>
</svg>
