<svg width="153" height="77" viewBox="0 0 153 77" fill="none" xmlns="http://www.w3.org/2000/svg">
<path fill-rule="evenodd" clip-rule="evenodd" d="M76.4998 3.45914e-05L70.6111 5.88869L46.0322 30.4676L51.9209 36.3563L76.4998 11.7774L100.823 36.1003L106.711 30.2116L82.3885 5.88873L76.4998 0L76.4998 3.45914e-05Z" fill="#BDBDBD"/>
<path fill-rule="evenodd" clip-rule="evenodd" d="M112.088 35.5883L111.576 35.0762L98.7744 47.8777L104.663 53.7664L111.576 46.8536L141.222 76.5001H153L117.465 40.9649L112.088 35.5883Z" fill="#C1DAFF"/>
<path fill-rule="evenodd" clip-rule="evenodd" d="M70.3552 40.9649L76.2439 35.0762L82.1326 40.9649L93.91 52.7422L99.7987 58.6309L117.465 76.297L117.262 76.5H105.89L93.91 64.5196L86.9972 71.4324L81.1085 65.5438L88.0213 58.6309L76.2439 46.8536L69.3311 53.7664L63.4424 47.8777L70.3552 40.9649L70.3552 40.9649Z" fill="#BDBDBD"/>
<path fill-rule="evenodd" clip-rule="evenodd" d="M53.2015 69.8963L47.3128 64.0076L34.8203 76.5001H46.5977L53.2015 69.8963Z" fill="#BDBDBD"/>
<path fill-rule="evenodd" clip-rule="evenodd" d="M35.0231 41.477L40.9118 35.5883L40.9118 35.5883L46.8005 41.477L81.8236 76.5001H70.0462L40.9118 47.3657L11.7774 76.5001H0L35.0231 41.477Z" fill="#0A26B4"/>
</svg>
